<?xml version="1.0" encoding="utf-8"?>
<!-- Generator: Adobe Illustrator 21.1.0, SVG Export Plug-In . SVG Version: 6.00 Build 0)  -->
<svg version="1.1" id="Calque_1" xmlns="http://www.w3.org/2000/svg" xmlns:xlink="http://www.w3.org/1999/xlink" x="0px" y="0px"
	 viewBox="0 0 404.2 301.2" style="enable-background:new 0 0 404.2 301.2;" xml:space="preserve">
<style type="text/css">
	.st0{fill:#024959;}
	.st1{fill:#313430;}
	.st2{fill:#F2C777;}
	.st3{fill:#F24738;}
	.st4{fill:#4E4F47;}
	.st5{fill:#AEABAB;}
	.st6{fill:#6D6A6F;}
	.st7{fill:#92908F;}
	.st8{fill:#42433B;}
</style>
<g>
	<path class="st0" d="M0.1,238.1c0-44.7,0-89.3,0-134c7.3-3.5,14.9-5.7,23-6.4c2.3-0.2,4.6-0.6,6.9-1.2c2.1-0.6,4.5-1.6,4-4.3
		c-0.5-2.9-2.9-2-4.9-1.6c-1.9,0.3-3.7,0.4-4.9-1.4c-0.7-1.1-0.8-2.3,0.1-3.2c1.7-1.7,3.4-0.2,5.1,0.1c4.5,0.7,9.3,3.1,12.6-2.9
		c1.2-2.1,3.9-4,6.2-4.6c2.6-0.7,3.9,2.6,5.9,4c1.8,1.3,3.9,1.5,4.8-0.4c2.4-4.7,11.1-3.2,10.3-10.8c0-0.2,0.5-0.4,0.8-0.6
		c7.1-5.4,7.8-8.4,5-16.9c-1.2-3.5-1.6-7-4.7-9.6c-1.2-1-0.6-2.8-0.3-4.3c1.1-5.1,3.7-10.1-0.1-15.2c-0.3-0.4-0.3-1.3-0.1-1.9
		c0.8-2.7-0.5-4.6-1.7-6.9c-2.5-5-4.7-10.4-1-15.9c63,0,126,0,189,0c1.7,3.4,6.6,3.1,8,6.3c1.7,3.9,3.7,3.3,7,2.3
		c3.5-1,7.5-4.1,10.9-1.4c7.7,6,17.8,3.4,25.7,7.9c0.3,0.2,1.1,0,1.4-0.3c6.5-4.4,13.9-2.2,20.8-3.2c7.9-1.1,14.4,3.9,22.1,3.8
		c3,0,6.1,3.1,9.7,0.8c1.1-0.7,2.3,0,3.2,0.8c1.8,1.5,3.8,1.9,6.1,1.7c2-0.1,3.6,0.6,4.7,2.3c1.6,2.4,3.9,2.7,6.6,2.6
		c4.6-0.1,9.5-0.6,13.6,1.9c2.7,1.6,5.2,2,8.1,1.4c0,47.3,0,94.7,0,142c-3.3,0.1-6.2-0.6-8.3-3.6c-0.6-0.9-1.7-1.6-2.8-2
		c-8-2.9-15.1-8.3-24-8.9c-2-0.2-3.8-2-5.9-2.6c-4.6-1.4-7-6.4-11.5-7.5c-5.1-1.3-11.5-4-15.5-2.1c-6.6,3-9.6-2.7-14.5-2.9
		c-0.2,0-0.4-0.1-0.5,0c-6,2.5-11.3,0.7-17.4-0.7c-5.4-1.2-8.9-3.4-12.4-7c-3.4-3.6-6.5-7.7-10.5-10.4c-4.5-2.9-8.4-6.5-12.9-9.4
		c-1.7-1.1-2.7-2.9-2.7-5.1C266,92.6,256.3,83,249.6,72c0-2.6,0-5.2-0.1-7.9c2.9-1.7,2.2-3.4-0.1-5.1c-0.7-8.8-1.2-17.6-4.5-25.9
		c1.3-3.7-0.5-6.8-2.6-9.2c-0.9-1.1-3.6-5-6.3-1c-8.4-4.5-17-8.3-26.6-9.8c-15.8-2.5-31-1.1-45.5,5.8c-9.8,3.2-17.3,9.2-22.5,18.1
		c-5.5,7.4-7.4,16-8.2,25c-1.1,13.9-3.3,27.7-0.9,41.6c0.1,0.6,0,1.3,0,2c-0.8,4.3,0.9,8.2,1.6,12.2c0.4,2.4,1.2,4.5,3.4,0.9
		c0.7-1.2,1.8-1.8,2.8-0.8c4,3.8,7.5,2.2,10.8-0.9c0,2.8-0.5,5.7-4,5.8c-6,0.2-5.9,4-5.4,8.2c0.2,1.3,0.6,2.7,0.3,3.9
		c-1.2,5.1,0.5,9.7,1.6,14.5c1.3,5.8,7.5,10.3,4.7,17.3c-2-0.4-2.5-2-2.9-3.7c-0.2-0.8-0.6-1.7-1.6-1.6c-1.3,0.1-1.5,1.2-1.5,2.2
		c0.1,2.7,0.1,5.3,0.4,8c0.3,2.5,0.7,5.3-2.5,5.4c-3.9,0.2-1.3-3.2-2-4.9c-0.1-0.3-0.4-0.5-0.6-0.7c-1.4,0-1.7,1.4-2.6,2
		c-1,0.6-1.9,1.3-3,1.7c-5.3,2.3-5.4,2.3-1.7,6.5c-6.4,1.4-9.1,0.1-11.9-5.8c-0.6-1.2-1.3-2.9-2.7-2.4c-1.9,0.7-0.6,2.2-0.2,3.4
		c1.5,4.2-1.8,6.2-4.4,6.2c-7,0.2-13.1,1.6-17.7,7.2c-0.3,0.3-1,0.5-1.4,0.4c-7.1-1.7-14,3-20.7,1.1c-10.6-3-8.9,10.2-16.1,11.3
		c-1.1,0.2-1.5,1.7-1.7,2.9c0,0.3,0,0.7-0.1,1c-0.8,4.8-1.9,5.5-6.1,2.9c-3.7-2.3-4.4-0.4-4.5,2.7c-0.1,1.7,0.1,3.4-0.3,4.9
		c-0.8,3.1-3.8,3.4-6.3,4.1c-1.7,0.5-2.5-0.4-2.7-2.1c-0.2-1.8-0.7-3.4-2.9-3.2c-2.1,0.1-3.4,1.5-3.8,3.4c-0.4,1.8-0.7,3.6-0.6,5.4
		c0.2,4.8-2.4,8.7-4.6,12.4c-1.7,2.8-5.6,0.3-8.4,0.2c-0.7,0-1.5-0.1-1.9,0.2C7.4,240.7,3.7,239.1,0.1,238.1z"/>
	<path class="st1" d="M148.3,166.8c2.8-6.9-3.4-11.4-4.7-17.3c-1.1-4.8-2.7-9.5-1.6-14.5c0.3-1.2-0.1-2.6-0.3-3.9
		c-0.5-4.3-0.6-8.1,5.4-8.2c3.5-0.1,4-2.9,4-5.8c0,0,0,0,0,0c3.5-1,7-2,10.2-4c3.1-1.9,6.1-1.7,8.6,1c2.8,3.1,5.3,2.6,7.3-0.5
		c1.4-2.2,3.4-3,5.7-3.6c6-1.7,11.1,0.1,15.9,3.5c2,1.4,4.1,2.7,6.4,1.4c2.6-1.4,4.5-1.6,6.3,1.1c0.6,0.9,2,1.5,3.1,0.6
		c1.1-1,0.1-2.1-0.4-3.1c-1.9-3.7-4.4-6.5-9.1-6.7c-4.7-0.1-8-2-9.5-7.1c-1.9-6.4-5-7.9-11.8-7c-7.1,0.9-13.9,0.5-19.7-4.5
		c-1.7-1.4-3.8-1.9-6.1-2c-2.7-0.3-5.4-0.6-8-0.9c-1.9-2.3-3.7-4.4,1.2-5.2c2-0.3,2.7-2,2.2-3.7c-1.4-4.6-0.2-9.1,0.2-13.6
		c2-1.6,3.8-1.8,5.6,0.4c2.7,3.4,6.5,4.9,10.4,6.1c0.8,0.7,1.6,1.3,2.4,2c-0.1,0.2-0.1,0.5,0,0.7c0.1,0.2,0.2,0.3,0.4,0.3
		c4.6,2.1,4.6,2.1,4.7-1.1c5.9-0.4,11.3,0.1,14.7,6.1c1,1.8,2.7,3.4,4.5,4.6c3.8,2.6,7.7,4.7,9.4,9.7c0.7,2.2,4.1,2.7,5.4-0.4
		c0.9-2,2.5-2.3,3.9-3.3c3.6-2.7,9.4-2.6,11.2-7.9c2.1,2.4,5.8,3.1,7,6.5c-4.1,2.1-8.9,2.5-12.8,5.2c-5.8,4-7.5,10-3.7,14.6
		c-0.1,1.3-1,2.7,0.1,3.7c1.1,1,2-0.4,3-0.9c2.2,1.3,4.4,2.2,7,1.5c0.8-0.5,1.7-0.9,2.5-1.4c0.2-0.3,0.3-0.6,0.3-0.9
		c1.2-0.2,2.3-0.4,3.5-0.6c1.2,0.3,2.2-0.1,2.9-1.2c1.7,0,3.3,0,5,0.1c0.6,1.1,1.9,2.4,1.7,3.4c-1.4,6.3,2,5.1,5.6,3.8
		c0.8,1.2,1.6,2.4,2.4,3.7c-1.9,3-5.4,1.8-9.4,3.1c6.3,3.7,10.1,8.5,14.5,12.6c1,0.9,1.7,3.1,3.5,2c1.5-0.9,0.7-2.7,0.4-4.2
		c-0.1-0.3-0.3-0.7-0.4-1c1.1-3.2,3.1-1.3,4.8-0.9c2.7,2.5,2.7,6.7,5.8,9c2,2.6,2.2,5.7,2.6,8.7c-0.9,0.3-1.7,0.7-2.6,1
		c-1.2,0.4-2.4,0.7-3.6,1.1c-1.7-2.7-5.2-3.2-7.2-5.5c-0.4-0.8-0.7-1.6-1.1-2.3c-4.1-7.5-11.8-9.8-18.8-13.1c-1.5-2-3.9-2.9-5.9-4.2
		c-2-2.5-4.2-4.9-7.1-6.1c-0.3,0.3-0.6,0.7-0.9,1c2,2.7,4,5.4,6,8.2c2.6,0.8,5.3,1.6,7.9,2.4c1.9,1.7,3.3,3.4-0.8,3.3
		c-3.3-0.1-4.5,1.4-4.2,4.5c0.6,6.9,2.2,13.7,4.1,20.4c0.7,2.4,2.3,4.7,5.5,3.5c2.4-0.9,3.5,0.3,4.3,2.1c0.9,1.9,1.6,4,2.5,6
		c2.5,5.6,6.1,6.9,10.7,4.1c0.6-0.7,1.3-1.4,1.9-2.1c-0.3-0.6-0.7-1.3-1-1.9c0.4-0.7,0.7-1.4,1.1-2.1c1.3,0.6,2.9,1,4,1.9
		c1.6,1.3,2.9,3.7,0.5,4.9c-3.1,1.5-1.5,2.3-0.3,3.8c0.8,1,2.8,1.3,2.4,3.3c-1.7,0.6-2.8-0.9-4.2-1.2c-0.4-0.2-0.7-0.3-1.1-0.5
		c0.2,0.4,0.3,0.7,0.5,1.1c0.9,3.5,1,7.2,3.6,10.2c1.7,1.9,0.1,3.3-1.3,4.5c-2.2-0.8-4.4-1.6-6.1,1c-1.2,1.8-2.8,1.1-4.3,0
		c-1.3-0.9-1.9-2.8-4.5-2.7c1.8,5.4,5.2,10.5,9.4,11.8c6,1.8,8.9,5.9,12.4,10c2.4,2.8,1,4.5-1.7,5.7c-2.7,1.2-4.4-0.4-6.1-2.1
		c-2.9-2.8-5.7-5.7-10.4-7.8c0.7,1.6,0.9,2.4,1.4,3c3.1,3.4,5.6,6.7,3.8,12c-0.7,2.1,1.3,3.6,3.8,2.9c1.3-0.4,2.5-0.9,3.8-1.3
		c3-1,6.3-0.5,8.5,1.1c2.5,1.7-0.4,4.1-1,6.2c-0.9,2.9-0.2,5.6,1,8.2c1,1.4,2,2.7,3,4.1c-1.1,4.4-0.3,8.5,1.5,12.6
		c0.4,0.9,4.5,5.5-1.9,3.9c-0.8-0.2-1.2,0.8-0.8,1.4c2.3,4.1-1.6,9.2,2,13.2c0.7,0.8,1.1,3.5-0.3,3.3c-5.8-0.7-3.8,3.4-4.3,6.1
		c-0.3,1.7-1,3-3,1.5c-4.3-3.5-5.8-10-3.3-14.9c1.7-3.4,0.8-6.5-0.8-9.5c-0.8-1.4-1.6-3.6-3.3-3.3c-1.5,0.3-3.3,2-3.8,3.5
		c-1.1,2.9-2.3,6.2-0.6,9.2c1.5,2.8,1.7,5.4,1.2,8.6c-0.5,2.8,0.2,5.9,2.6,7.7c1.8,1.4,2.6-2.2,4.8-1.9c1.1,3.5,4.1,7.4-2.5,9.2
		c-1.4,0.4-1.2,2.2-1.4,3.5c-17,0-34,0-51,0c-0.2-2.1-0.5-4-3-4.6c-3.5-1-3.6-3.7-1.9-5.8c3.5-4.2,1-7.2-1.8-9.2
		c-3.2-2.4-3.9-4.5-1.5-7.5c-0.8-0.9-1.4-0.3-2.1-0.3c-5.5,0.6-6.7-0.7-5.6-5.9c0.5-2.4,0.1-4.1-2.8-3.7c-1.8,0.2-3.4,0.3-3.9-1.9
		c-0.8-3.1-2.8-2.5-4.5-1.2c-3.5,2.7-4.2,0.6-4.6-2.3c-0.2-1.2-0.2-2.3-0.3-3.5c-0.3-1.9,0.2-4.7-2.5-4.7c-2.7,0-3.1,2.7-3.3,4.8
		c-0.3,3.7-0.8,7.3-2.3,10.7c-0.9,0.8-1.1,2.4-3,2.7c0.7-5.6-1.9-11,0.1-16.5c0.2-0.8,0.6-2.1-0.1-2.3c-4.7-1-4-4.6-3.9-7.8
		c0.1-3.7-1.1-6.2-4.5-8c-2.2-1.1-3.7-3.4-3.9-6c-0.2-1.7-0.6-3.3-2.3-4.1c-0.6-10.5-0.8-20.9-3.6-31.3c-2-7.4-5.5-15-4.1-23.2
		C149.7,168.6,148.7,167.7,148.3,166.8z M214.3,278.7c0.5-2.2,4.5,2,4.5-2.2c0-2.1-1.5-2.8-3.4-2.5c-1.9,0.2-3.6,0.9-3.7,3.1
		C211.5,278.5,212.5,279.1,214.3,278.7z M245.5,204.4c-1.2,0.1-2.3,0.6-1.9,2.2c0.5,1.8,1.3,3.6,3.6,3.4c1.5-0.1,2.3-1.4,2-2.9
		C248.9,205.2,247.4,204.5,245.5,204.4z M255.9,179.4c1.5,4.5,2.5,7.8,4,12.4C261,186.5,260.9,182.9,255.9,179.4z M236.1,190.5
		c0.7,3.2,1.2,5.2,4.4,6.2C240.2,193.9,239.3,192.2,236.1,190.5z M245.9,165.7c-0.2-0.1-0.4-0.3-0.6-0.4c0,0-0.1,0.2-0.2,0.3
		c0.2,0.1,0.4,0.3,0.6,0.4C245.7,166.1,245.8,165.8,245.9,165.7z"/>
	<path class="st2" d="M172.1,252.1c-2,5.5,0.6,10.9-0.1,16.5c1.9-0.2,2-1.8,3-2.7c0.3,0.6,0.9,1.2,0.9,1.7
		c-0.8,5.7-3.3,10.7-6.4,15.4c-0.6,0.9-1.8,1.6-2.5,1.1c-2.7-1.9-5.2-0.8-8.1-0.6c-9,0.6-11.8,2.1-15,10.8c-0.5-0.7-1-1.5-1.6-2.2
		c-0.4-0.3-0.8-0.7-1.1-1c-0.4-1-0.9-2-1.3-3.1c-0.2-1-0.8-1.6-1.9-1.4c-0.3-0.1-0.7-0.3-1-0.4c0.2-0.6,0.4-1.3,0.6-1.9
		c2.9-1.6,4.5-4.2,5.6-7.3c0.9-2.7,2.3-4.6,5.9-3.5c6.7,2,13.9-3.8,13.8-10.9c0-1,0.1-2.1-0.9-2.6c-1.1-0.6-1.9,0.3-2.5,1.1
		c-2.2,2.7-5.2,3.8-9.1,4.5c1.1-4.1,1.5-7.6,5.9-9.4c3.3-1.3,2.7-4.5,1.1-7.1c-0.7-1.1-2.1-1.7-2.8-2.8c-1.6-2.5-2.5-1.9-3.9,0.2
		c-2.7,4.2-4.1,9.1-7.6,12.8c-1.1,0.9-2.2,1.8-3.3,2.7c-20.4,13.3-42.8,23.6-61.7,39.3c-24.9,0-49.8-0.1-74.7,0.1
		c-2.7,0-3.4-0.5-3.3-3.3C0.2,278,0.1,258,0.1,238.1c3.7,1,7.3,2.6,11,0c0.5-0.3,1.3-0.3,1.9-0.2c2.9,0.1,6.7,2.6,8.4-0.2
		c2.3-3.6,4.8-7.6,4.6-12.4c-0.1-1.8,0.2-3.7,0.6-5.4c0.5-1.9,1.7-3.3,3.8-3.4c2.2-0.1,2.8,1.4,2.9,3.2c0.2,1.6,1,2.5,2.7,2.1
		c2.5-0.7,5.5-1,6.3-4.1c0.4-1.6,0.3-3.3,0.3-4.9c0.1-3.1,0.8-5,4.5-2.7c4.1,2.6,5.3,1.9,6.1-2.9c0.1-0.3,0-0.7,0.1-1
		c0.1-1.2,0.6-2.7,1.7-2.9c7.2-1.2,5.5-14.4,16.1-11.3c6.8,1.9,13.7-2.8,20.7-1.1c0.4,0.1,1.1-0.1,1.4-0.4
		c4.6-5.7,10.7-7.1,17.7-7.2c2.6-0.1,5.9-2,4.4-6.2c-0.4-1.1-1.7-2.7,0.2-3.4c1.5-0.5,2.2,1.1,2.7,2.4c2.8,5.9,5.5,7.2,11.9,5.8
		c-3.7-4.2-3.7-4.2,1.7-6.5c1.1-0.5,2-1.1,3-1.7c0.9-0.6,1.2-2.1,2.6-2c0.2,0.2,0.5,0.4,0.6,0.7c0.7,1.6-1.9,5,2,4.9
		c3.2-0.2,2.8-3,2.5-5.4c-0.3-2.6-0.4-5.3-0.4-8c0-1,0.2-2.1,1.5-2.2c1-0.1,1.4,0.8,1.6,1.6c0.4,1.7,0.9,3.2,2.9,3.7
		c0.5,0.9,1.5,1.8,1.4,2.5c-1.4,8.2,2.2,15.8,4.1,23.2c2.8,10.5,3,20.8,3.6,31.3c-0.3,4.3-0.6,8.6-0.8,12.9c-0.1,0.9-0.5,2.2,1,2.4
		c1,0.1,0.7-1.9,2-1.5c0.9,1.5-1,3.7,0.5,4.2c4.2,1.5,4.2,5,4.5,8.3c0.3,2.5,1.5,3.1,3.7,2.6C169.5,252.6,170.8,252.3,172.1,252.1z
		 M61,208.9c1.2-0.2,1.6-1.1,1.7-2.1c0.1-0.8,0-1.9-1-1.9c-1.5-0.1-1.8,1.2-1.9,2.3C59.7,208,60,208.7,61,208.9z M56.8,214.3
		c-0.5-0.3-0.8-0.5-1.2-0.6c-0.2,0.4-0.6,0.8-0.5,1.1c0.1,0.3,0.6,0.5,0.9,0.7C56.2,215.1,56.5,214.7,56.8,214.3z M30.1,237.4
		l-0.2,0.2l0.3,0.1L30.1,237.4z"/>
	<path class="st3" d="M67.1,0.1C63.4,5.6,65.5,11,68,16c1.2,2.3,2.4,4.2,1.7,6.9c-0.2,0.6-0.2,1.5,0.1,1.9C73.7,29.9,71,35,70,40.1
		c-0.3,1.5-0.9,3.3,0.3,4.3c3.1,2.6,3.6,6.1,4.7,9.6c2.8,8.5,2.1,11.5-5,16.9c-0.3,0.2-0.8,0.4-0.8,0.6c0.8,7.6-7.9,6.1-10.3,10.8
		c-0.9,1.9-3.1,1.6-4.8,0.4c-2-1.4-3.2-4.7-5.9-4c-2.4,0.6-5.1,2.5-6.2,4.6c-3.3,6-8.1,3.6-12.6,2.9c-1.7-0.3-3.4-1.8-5.1-0.1
		c-0.9,0.9-0.8,2.2-0.1,3.2c1.2,1.8,3.1,1.7,4.9,1.4c1.9-0.4,4.3-1.3,4.9,1.6c0.5,2.7-1.9,3.7-4,4.3c-2.2,0.6-4.6,1-6.9,1.2
		c-8.1,0.7-15.7,2.9-23,6.4c0-33.4,0-66.8-0.1-100.2C0,0.9,0.5,0,3.8,0C24.9,0.2,46,0.1,67.1,0.1z M16.5,87.4c0.5-0.6,1.1-1,1.2-1.5
		c0.2-0.8-0.5-1.1-1.1-0.8c-0.5,0.2-0.8,0.8-1.1,1.3C15.4,86.6,16,87,16.5,87.4z"/>
	<path class="st2" d="M249.6,72c6.7,11,16.4,20.6,15.9,34.9c-0.1,2.2,0.9,4,2.7,5.1c4.4,2.9,8.4,6.5,12.9,9.4
		c4,2.6,7.1,6.8,10.5,10.4c3.4,3.6,7,5.8,12.4,7c6,1.4,11.4,3.2,17.4,0.7c0.1-0.1,0.3,0,0.5,0c4.8,0.2,7.9,5.9,14.5,2.9
		c4-1.8,10.3,0.9,15.5,2.1c4.6,1.1,6.9,6.1,11.5,7.5c2,0.6,3.9,2.4,5.9,2.6c8.9,0.7,16,6.1,24,8.9c1,0.4,2.2,1.1,2.8,2
		c2.1,3,5,3.7,8.3,3.6c0,31.7,0,63.3,0,95c-2.3-0.3-2.5-2.5-3.3-4c-7.5-14.4-16.7-27.6-27.8-39.4c-2.9-3.1-5.6-6.5-8.5-9.6
		c-7.7-8.1-15.5-16.2-23.4-24.3c-5.5-5.7-11.2-11.3-16.8-16.9c-1.8-3.9-6.6-4.8-8.5-8.5c-1.5-2.9-3.6-5.1-6.7-6.2
		c-1.2-1.4-2.5-2.6-3.6-4.1c-4.1-5.4-9.7-9.4-14.3-14.3c-6-6.3-11.9-12.5-19.1-17.3c-7.4-4.9-12.5-10.1-11.3-20.1
		c0.8-6.8-3.2-12.2-9.3-15.7c-0.1-1.3-0.2-2.7-1.3-3.6C249.9,77.4,249.8,74.7,249.6,72z"/>
	<path class="st4" d="M257.9,141.2c0.4,0.8,0.7,1.6,1.1,2.3c-3.1,4.1,1.4,4.5,3.1,6.2c1.6,1.6,3.2,1.9,4.1-0.7
		c1.2-0.4,2.4-0.7,3.6-1.1c0,3,1.2,5.4,3.4,7.4c3.2,3,7.2,5.5,4.8,11c-0.3,0.6,0.8,1.7,1.2,2.6c-0.1,1-0.3,1.9-0.2,2.9
		c0.2,1.4,0.4,3.4,2.2,3.1c2.1-0.4,0.9-2.3,0.8-3.7c4.9-0.8,4.6,2.7,5.5,6c0.9,2.9,7.1,1.4,7,5.7c-0.2,5.2,1.3,10.2,1.6,15.2
		c0.2,3.9,0.9,6.7,3.7,9.1c-0.3,1-0.6,1.9-0.9,2.9c-1.9,2.2-1,4.4,0.1,6.5c-1.3,2.1-3.2,4-1.7,6.8c1,1.9,2.8,1.5,4.4,1.3
		c2.7-0.3,3-2.1,3-4.3c3.7-3.1,3.5-3.9-1.2-6.2c-0.5-2.7-0.8-5.5-3.3-7.2c-0.1-1.3-0.2-2.5-0.3-3.8l0.1-0.1c3.6,2.2,6.7,5.1,11,6.3
		c1.8,0.5,5.3,3.4,1.4,6.5c-1.8,1.4-1.5,3.1-0.8,5c0.8,1.8,1.5,3.7,2.2,5.5c-0.4,1.4,0.4,3-1.1,4.3c-0.5-0.4-1-0.7-1.4-1.1
		c-0.9-0.8-1.4-2.7-3-1.2c-1.1,1.1-0.3,2.5,0.7,3.4c1.6,1.5,3.6,2.2,5.6,3c-0.8,5.5,0.8,10.4,3.7,15c0.8,1.3,1.5,2.8,3.3,2.2
		c1.8-0.6,1.6-2.3,1.5-3.8c-0.3-5.2-3-9.3-6.1-13.2c0.3-0.6,0.5-1.2,0.8-1.8c2.2,1.8,4.1,3.9,7.7,3.3c2-0.3,4.5,1.1,5.5,3.5
		c-1.6,0.3-3.3,0.6-4.9,0.9c0,0-0.2,0.2-0.2,0.2c2,6.9-2.6,16.5,8.1,19.4c0.3-1.7-1.2-3.5-1.6-5.6c-0.5-2.4-1.8-4.8,0.6-6.9
		c0,0,0,0,0,0c0.7,3.2,0.5,6.8,2.4,9.6c2.6,3.7,2.1,7,0.3,10.7c-2,4.1-0.3,6.6,3.1,9.6c3,2.5,7.8,1.7,9.5,5.5
		c2.5,5.8,4.4,11.8,6.6,17.7c-7.3,0-14.7,0-22,0c1-7.4,0-12.1-3.3-14.9c-1.4,3,1.2,6.1-0.1,9.8c-1.4-3-4.1-3.2-6-4.5
		c-1.8-1.2-1.8-4.8-3.1-7c-1.2-2.1-2.7-1.5-3.5,0.6c0,0,0.1,0.1,0.1,0.1c3.2,4.9,3.8,10.7,6,16c-0.7,0-1.3,0-2,0
		c-6.1-5.2-9-12.5-12.4-19.4c-1-2-2.3-3.8-4.6-4.2c-5.5-0.9-7.1-4.8-8-9.4c3.9-0.9,4.4-2.5,2.3-6.6c-1.1-2-4-3.7-3-5.9
		c2.5-5.8-2.5-5.7-5.2-8.5c0.1,6.5,2.3,11.6,2.8,17c-4.1-2.4-2.3,0.6-2.1,2.3c0.2,1.4,2,3.4-0.6,4.2c-1.8,0.5-2.9-1.1-3.8-2.5
		c-0.9-1.4-1.4-3-1.1-4.7c0.7-4.7-2.7-8.7-2.1-13.5c0.2-1.5-1.7-2.2-3.2-2.6c-1-1.4-2-2.7-3-4.1c1.4-2.6,3.1-4.1,5.6-1.1
		c0.8,1,1.6,2.6,3.1,1.8c1.3-0.7,1.9-2.4,1.7-3.9c-0.6-5.2,1-10.4-1.1-15.9c-1.6-4.1-2.5-7.5-6.7-9.4c-3.1-1.5-5.8-3.9-4.7-7.8
		c1.5-5.4-0.6-8.2-5.5-9.7c-0.8-0.7-1.6-1.3-2.4-2l0,0c1.4-1.2,3-2.6,1.3-4.5c-2.6-3-2.8-6.7-3.6-10.2c0.2-0.2,0.4-0.4,0.6-0.6
		c1.4,0.4,2.5,1.8,4.2,1.2c0.4-2-1.6-2.3-2.4-3.3c-1.2-1.5-2.8-2.3,0.3-3.8c2.4-1.1,1.1-3.5-0.5-4.9c-1.1-0.9-2.7-1.3-4-1.9
		c-0.6-1-1.8-2-1.7-3c0.6-5.5-3.3-6.1-7.1-6.8c-6.3-1-9.3-4.9-9.9-11c-0.2-1.8-0.2-3.6-0.2-5.5c0-1.8-0.2-3.9,1.9-4.8
		c1.8-0.8,3.6,0,5.1,1.1C253.2,138.8,255.1,140.8,257.9,141.2z M285.1,190.1c0.8,0,1.6,0,2.4,0c0.7-5.3-2.8-8.5-7.5-6.9
		c-1.1-0.3-2-2.3-3.2-0.8c-0.8,0.9,0.2,2.2,1.1,2.9C280.1,187.1,282.3,189,285.1,190.1L285.1,190.1z M316.1,261.1L316.1,261.1
		c-0.3-1.4-0.7-2.7-1-4.1c-1.1-4.3-3.1-8.3-3.8-12.7c-0.2-1.3-0.7-3.4-2.7-2.7c-1.8,0.7-0.9,2.6-0.4,3.9c1.1,2.9,3.7,5.1,4.1,8.3
		c-1.4,1.2-4.1,1.4-3.6,3.9c0.5,2.5,2.9,2.6,5,2.9C314.5,260.8,315.3,261,316.1,261.1z M298,242.7c1.2-2.4-0.2-5.4,1.7-6.4
		c5.4-3,0.6-5-0.6-7.1c-0.7-1.2-2.4-0.9-2.4,0.7C296.8,233.9,295.1,238.2,298,242.7z M327.3,265.4c-0.9-0.1-1.5,0.3-1.4,1
		c0.3,2,1.2,3.8,3.3,4.4c1,0.3,1.5-0.6,1.4-1.5C330.2,267.3,328.9,266.2,327.3,265.4z M272.5,169c-0.3-3.7-0.5-6-3.1-6.9
		c-0.3-0.1-1.1,0.3-1.2,0.6C267.7,165.4,269.9,166.4,272.5,169z M343.7,286.2c-0.6,2.6-0.4,4.1,1.5,5.4
		C346.2,289.4,345.8,288,343.7,286.2z M292.9,199.1c-0.8-2.2-1.5-3.6-3.7-3.7C289.3,197.6,290.1,198.8,292.9,199.1z M338,286.3
		c0.1,1-0.5,2.3,0.7,3.1C339.1,288.2,339.2,287.1,338,286.3z M339.8,295.9c0-0.1,0-0.3,0-0.4c-0.2,0-0.4,0.1-0.5,0.1
		c0,0.1,0.1,0.3,0.2,0.4C339.5,296,339.7,295.9,339.8,295.9z"/>
	<path class="st5" d="M324.3,169.9c5.6,5.6,11.3,11.2,16.8,16.9c7.8,8,15.6,16.1,23.4,24.3c2.9,3.1,5.6,6.5,8.5,9.6
		c11.1,11.8,20.3,25.1,27.8,39.4c0.8,1.5,1,3.7,3.3,4c0,4.7,0,9.3,0,14c-3.1-0.5-4.1,2.9-7.2,4c1.6-6.2-2.6-11-2.2-16.8
		c0.2-3.9-3.3-5.1-6.4-2.4c-2.2,1.9-3.2,0.9-4.2-1c-0.8-1.6-0.6-3.2-0.1-4.8c0.8-3.3,0.7-3.3-2.4-2.8c-1,0.2-1.8-0.3-2-1.1
		c-1.1-3.7-4-6.1-6.3-9c-4.8-6.1-8.9-12.8-14.6-18.2c-0.8-0.8-1.6-1.6-1.8-2.9c-0.9-6-6.8-9.2-12.7-6.8c-2.1,0.8-2-0.9-2.7-1.9
		c-2.2-3-1.5-7.4-4.8-10.7c-1,3.2-1.7,5.9-2.5,8.6c-1.2-0.7-1.9-2-3.4-2.1c-2.7-2.7-3.3-6.5-4.8-9.8c-0.4-0.9-0.7-2.1,1-2
		c2.4,0.1,2.8-1.5,2.8-3.2c0-1.9-1.4-3-3.2-3.2c-2.8-0.3-4.1-2-4.8-4.4c-0.3-1.2-0.7-2.1-2-2.6c-6.2-2.9-10-8.8-11.9-14.4
		c-1.5-4.3-4.1-6.3-6.8-8.8c-5.8-5.4-10.6-11.9-17.1-16.5c-2.3-1.6-3.9-5.4-7.8-3.5c-1.7,1.4-1.6,4.1-3.7,5.3
		c-0.4-3-0.5-6.2-2.6-8.7c-0.8-4.5-1.5-9.1-5.8-11.9c-0.3-0.4-0.6-0.8-0.8-1.2c-0.3-2.9-2.8-4.6-4.2-6.9c0.3-4.4-2.4-8.2-2.2-12.6
		c0.1-1.5-0.2-3.2-2-3.6c-2.3-0.5-2.5,1.6-3.1,3c-0.5,1.2-1.2,2.3-1.8,3.5c-1.5-0.6-3-1.2-4.5-1.8c-1.5-0.7-3-0.8-4.5,0.1
		c-1.7,0-3.3,0-5-0.1c-1.4-0.6-2.3-0.1-2.9,1.2c-1.2,0.2-2.3,0.4-3.5,0.6c-3.3-3.7-7.1-4.2-11.4-1.8c-0.5-0.1-1-0.2-1.5-0.3
		c-3.8-4.6-2.1-10.6,3.7-14.6c3.9-2.7,8.7-3.1,12.8-5.2c1.1,0.6,2.1,1.5,3.3,1.9c3.1,0.9,5.9,1.1,5.9-3.5c2.7-2.6,5.9-2.1,9.1-1.3
		c6.1,3.4,10.1,8.9,9.3,15.7c-1.2,10,3.9,15.2,11.3,20.1c7.2,4.8,13.1,11,19.1,17.3c4.6,4.9,10.2,8.9,14.3,14.3
		c1.1,1.4,2.4,2.7,3.6,4.1c1.1,2.2,2.3,4.4,3.7,6.3C315.6,165.4,318.1,170.4,324.3,169.9z M356.1,208.1L356.1,208.1
		c0.2,1.7,1,2.9,2.2,3.6c0.3-0.3,0.6-0.6,0.9-0.9C358.2,209.9,357.1,209,356.1,208.1z M378.3,241.8l-0.4,0l0,0.4
		c1.4,2.9,3.7,3.4,6.2,3.4c0.2-0.5,0.4-1,0.6-1.4C382.5,243.4,380.4,242.6,378.3,241.8z M330.1,189.1
		C330.1,189.1,330.1,189.1,330.1,189.1c2.1,3.9,6.2,5.9,8.9,9.2c2.5,3.2,5.7,5.4,9.5,6.7c1.2,0.4,2.6,0,2.9-1.2
		c0.5-1.6-1-1.9-2.2-1.7c-2.1,0.3-2.9-1.2-3.7-2.6c-1.4-2.3-3-4.3-5.6-5.4c-1.1-1-2.9-1.1-3.6-2.6c-0.2-2.4-1.7-4.7-3.6-5
		c-6.2-1-7.8-6.5-11.4-10.1c-1.2-1.2-2.2-2.5-3.5-3.5c-0.9-0.7-2.2-1.5-3.1-0.5c-1.1,1.3,0.4,2.1,1.3,2.6c1.7,1.1,2.6,3,4,4.4
		c3,3.1,4.6,7.9,9.5,9C329.7,188.7,329.9,188.9,330.1,189.1z M368.7,226.9c2.9,3.1,5,5.5,9,7.3C375.5,230.2,373.7,227.5,368.7,226.9
		z"/>
	<path class="st6" d="M272.4,146.9c2.1-1.2,2-3.9,3.7-5.3c0.1,2.6,1,4.5,3.8,5.1c1.7,0.3,3,1.5,4,2.9c2.2,3.2,5.2,5.5,7.8,8.3
		c2.8,2.9,7.7,5.7,7.1,9.7c-0.7,5,1.6,7.3,4.7,9.9c1.3,1.1,2,2.6,2.5,4.2c1.3,5.1,6.2,8.5,6.4,14.2c0,0.6,1,1.3,1.6,1.9
		c4.4,4.5,8.8,8.9,13.2,13.4c-0.5,0.7-0.6,1.4-0.2,2.1c0.4,1,0.8,1.9,1.2,2.9c0.7,1.9,1.4,3.7,2.1,5.6c2.4,6.5,9.7,9.2,12.3,15.7
		c0.6,1.6,1.9-0.1,2.9-0.5c1.1-0.5,2.3-0.7,3.3,0.2c1,0.9,1.3,2.1,0.5,3.1c-2.7,4,0.8,6.9,1.8,10.1c0.5,1.6,2.6,2.1,4.3,1.8
		c1.4-0.3,0.5-1.6,0.5-2.5c0.2-0.2,0.4-0.4,0.5-0.6c2.6,1.1,6.2,3.1,4.8,5.6c-2.1,3.8-0.2,6.1,1,9c0.9,3.6,1.6,7.3,4.9,9.6
		c3.6,0.2,1.9-2.2,1.8-3.8c0.1-0.2,0.3-0.3,0.4-0.5c3.6-0.2,7.1,1.5,10.7,0.9c0.4-0.1,0.9,1.3,1.5,1.8c3.9,3.7,2.2,9,3.7,13.3
		c0,0-0.1,0.1-0.1,0.1c-1.9,4.7,2.1,6.8,4.3,9.6c1.9,2.4,3,4.4-0.3,6.4c-4.7,0-9.3,0-14,0c-0.3-1-0.1-2.6-1.7-2.4
		c-1.2,0.1-0.9,1.5-1.3,2.4c-0.7,0-1.3,0-2,0c-2.6-11-5.8-21.8-10.9-32.4c-0.9,1-1.3,1.3-1.3,1.5c0,3,0.1,5.9,0.2,8.9c0,0,0,0,0,0
		c-2.4-0.4-1.6-3.8-4-4.6c1.7,9.1,2.2,17.9,3,26.6c-0.7,0-1.3,0-2,0c-2.2-5.9-4.1-11.9-6.6-17.7c-1.7-3.9-6.5-3-9.5-5.5
		c-3.4-2.9-5.1-5.5-3.1-9.6c1.8-3.7,2.2-7-0.3-10.7c-1.9-2.7-1.7-6.3-2.4-9.6c3,1,6,1.9,9,2.9c3.5-4.5,3-6.8-3-12
		c-1.1-2-2.2-4.1-3.3-6c-0.4-0.7-1.2-1.4-2.1-0.8c-0.9,0.6-0.6,1.5-0.1,2.2c1.4,2,2.7,4.2,5.4,4.7c0,2.3,0,4.6,0,6.8
		c-2,0.7-5.3-2.3-5.9,2.1c-2.4,2.1-1.1,4.5-0.6,6.9c0.4,2.1,1.9,3.9,1.6,5.6c-10.8-2.9-6.1-12.5-8.1-19.4l0.2-0.2
		c1.6-0.3,3.3-0.6,4.9-0.9c-1-2.5-3.5-3.9-5.5-3.5c-3.6,0.6-5.4-1.6-7.7-3.3c-0.2-2.9-2.7-4.6-3.9-6.9c-0.7-1.8-1.5-3.7-2.2-5.5
		c-0.7-1.8-1-3.6,0.8-5c3.9-3.1,0.4-6-1.4-6.5c-4.3-1.2-7.4-4-11-6.3c0,0-0.1,0.1-0.1,0.1c0.1,1.3,0.2,2.5,0.3,3.8
		c0,0-0.3,0.3-0.3,0.3c-2.8-2.4-3.6-5.2-3.7-9.1c-0.2-5-1.7-10-1.6-15.2c0.1-4.3-6.1-2.9-7-5.7c-1-3.3-0.6-6.8-5.5-6
		c-1-0.8-1.9-1.5-2.9-2.3c-0.4-0.9-1.5-2-1.2-2.6c2.4-5.5-1.6-8.1-4.8-11c-2.1-2-3.4-4.4-3.4-7.4
		C270.7,147.6,271.5,147.2,272.4,146.9z M377.1,275l-0.2,0l0,0.2c0.3,0.7,0.7,1.4,1,2.1l0.3,0l0-0.3
		C377.9,276.3,377.5,275.6,377.1,275z M280.1,155.1L280.1,155.1c0.5,1.7,1.2,3.1,4,3C282.8,156.1,281.5,155.6,280.1,155.1z
		 M320.8,213.1c1-3.8-1.7-4.9-3.3-6.6C317.7,209.2,318.9,211,320.8,213.1z M321.6,218.2c1.1,2.4,2.2,3.8,4.3,3.5
		c0.8-0.1,1-0.9,0.8-1.6C326.1,217.5,324,218.4,321.6,218.2z M375.4,292.9c-0.9-1.8-1.2-4.3-4.3-4.6
		C371.3,291.2,372.7,292.6,375.4,292.9z M351.6,270.4c1.6-3,1.1-4.8-0.7-7.3C351,265.8,350.5,267.7,351.6,270.4z M340.2,272.3
		c1.4-1.2,2.8-2.3,2.4-4.3c-0.1-0.7-1-1.1-1.5-0.6C339.6,268.6,338.9,270.1,340.2,272.3z M355.1,256.9c-0.3-0.9-0.6-1.9-1.8-1.9
		c-0.8,0-0.9,0.8-0.8,1.5c0.1,0.9,0.6,1.5,1.5,1.6C354.7,258.1,355.2,257.7,355.1,256.9z M352.7,278.8c-1-0.1-1.3,0.3-1.2,0.8
		c0.1,0.6,0.4,1.2,0.8,1.6c0.4,0.4,1,0.1,1-0.4C353.3,280,352.9,279.3,352.7,278.8z M382.1,283c-0.1-0.2-0.3-0.5-0.4-0.7
		c-0.2,0.2-0.4,0.4-0.5,0.6c0,0.1,0.1,0.4,0.2,0.4C381.6,283.1,381.9,283,382.1,283z M346.1,255.4l0.1,0.3l0.2-0.2L346.1,255.4z"/>
	<path class="st3" d="M404.1,27.1c-2.9,0.6-5.4,0.1-8.1-1.4c-4.2-2.5-9-2-13.6-1.9c-2.7,0.1-5-0.3-6.6-2.6c-1.1-1.7-2.7-2.4-4.7-2.3
		c-2.2,0.1-4.3-0.3-6.1-1.7c-0.9-0.8-2.1-1.5-3.2-0.8c-3.6,2.3-6.7-0.8-9.7-0.8c-7.7,0.1-14.2-4.9-22.1-3.8
		c-6.9,1-14.4-1.2-20.8,3.2c-0.4,0.3-1.1,0.4-1.4,0.3c-8-4.5-18.1-1.9-25.7-7.9c-3.4-2.7-7.4,0.3-10.9,1.4c-3.3,1-5.3,1.6-7-2.3
		c-1.4-3.2-6.3-2.9-8-6.3c48.2,0,96.3,0,144.5-0.1c3,0,3.7,0.6,3.6,3.6C403.9,11.4,404.1,19.3,404.1,27.1z"/>
	<path class="st7" d="M368.8,269.4c0.1,1.6,1.8,4-1.8,3.8c-0.8-3.6-1.9-7.1-4.9-9.6c-1.2-2.9-3-5.2-1-9c1.4-2.6-2.2-4.5-4.8-5.6
		c-0.2-0.4-0.4-0.9-0.7-1.3c-0.7-0.8-1.5-2.4-2.7-1.2c-1.2,1.3,0.6,1.8,1.5,2.4c0.4,0.3,0.9,0.4,1.3,0.7c0,0.9,0.9,2.2-0.5,2.5
		c-1.7,0.3-3.8-0.1-4.3-1.8c-1-3.2-4.5-6.1-1.8-10.1c0.7-1.1,0.5-2.3-0.5-3.1c-1-0.8-2.1-0.7-3.3-0.2c-0.9,0.4-2.3,2.1-2.9,0.5
		c-2.6-6.5-9.9-9.2-12.3-15.7c-0.7-1.9-1.4-3.7-2.1-5.6l0,0c1.5,0.2,2.5,1.3,3.7,2.2c1.5,1.1,3.6,1.7,4.9,0.3
		c1.3-1.4-1.1-2.3-1.6-3.6c-0.1-0.3-0.1-0.6,0-0.9l0,0.1c-0.3-0.7-0.7-1.4-1-2.1l0,0.1c0.8-2.7,1.6-5.3,2.5-8.6
		c3.3,3.4,2.6,7.7,4.8,10.7c0.7,1,0.7,2.7,2.7,1.9c5.9-2.3,11.8,0.9,12.7,6.8c0.2,1.3,1,2.1,1.8,2.9c5.7,5.4,9.8,12.1,14.6,18.2
		c2.3,2.9,5.1,5.3,6.3,9c0.2,0.8,1,1.2,2,1.1c3.1-0.5,3.2-0.5,2.4,2.8c-0.4,1.7-0.7,3.3,0.1,4.8c1,1.9,2,2.9,4.2,1
		c3.1-2.6,6.6-1.5,6.4,2.4c-0.3,5.8,3.8,10.6,2.2,16.8c3-1.1,4.1-4.5,7.2-4c0,6.8-0.1,13.7,0.1,20.5c0.1,2.2-0.4,2.7-2.6,2.6
		c-4.2-0.2-8.3-0.1-12.5-0.1c3.3-2,2.2-3.9,0.3-6.4c-2.2-2.8-6.2-4.9-4.3-9.6c0.5,1.5,1.3,2.7,2.9,3.1c0,0,0.2,0,0.2,0l0-0.2
		c-0.5-1.6-1.5-2.6-3-3c-1.5-4.4,0.2-9.6-3.7-13.3c-0.6-0.5-1.1-1.9-1.5-1.8c-3.7,0.5-7.1-1.2-10.7-0.9c-0.6-0.7-1.2-1.4-1.8-2.2
		c-0.6-0.5-0.8-0.4-0.5,0.4C367.6,267.9,368.2,268.7,368.8,269.4z M368.1,245c-0.4-0.7-0.7-1.5-1.7-1.6c-0.1,0-0.3,0.2-0.3,0.3
		c0.1,1,0.8,1.3,1.6,1.7c0.6,1.4,1.2,2.7,4,3.7C370,247.1,369.1,246.1,368.1,245z M359.4,230.8c-0.3-0.2-0.6-0.9-1-0.3
		c0,0.1,0.4,0.5,0.6,0.7c1,2,1.8,4.4,4.8,5.5C363.3,233.5,361.4,232.1,359.4,230.8z M352.2,225.3c-0.1-2.7-0.8-4.8-3.9-4.4
		c-1.4,0.2-4.1-0.8-3.8,1.8c0.4,3.1,2.8,5.6,5.7,6.3C352.4,229.5,351.6,226.6,352.2,225.3z M392.7,281.2c-0.9-3.8-2.9-7.1-7.4-9.8
		C387.1,275.9,389.8,278.5,392.7,281.2z"/>
	<path class="st8" d="M143.9,294.2c3.2-8.7,5.9-10.2,15-10.8c2.9-0.2,5.4-1.3,8.1,0.6c0.8,0.6,2-0.2,2.5-1.1
		c3.1-4.7,5.5-9.8,6.4-15.4c0.1-0.5-0.6-1.1-0.9-1.7c1.5-3.4,2-7,2.3-10.7c0.2-2.1,0.6-4.9,3.3-4.8c2.7,0,2.2,2.8,2.5,4.7
		c0.2,1.1,0.2,2.3,0.3,3.5c0.4,2.9,1.1,5.1,4.6,2.3c1.7-1.3,3.7-1.9,4.5,1.2c0.6,2.2,2.2,2.1,3.9,1.9c2.9-0.3,3.4,1.3,2.8,3.7
		c-1.1,5.2,0.1,6.5,5.6,5.9c0.6-0.1,1.2-0.6,2.1,0.3c-2.4,2.9-1.8,5.1,1.5,7.5c2.8,2.1,5.3,5.1,1.8,9.2c-1.8,2.1-1.6,4.8,1.9,5.8
		c2.4,0.7,2.8,2.6,3,4.6c-4.7,0-9.3,0-14,0c0.4-4.9-1.5-9.5-2.4-14.2c-0.4-2-0.6-5-3-5.2c-2.3-0.2-2.3,2.8-3.2,4.5
		c-1.7,3.4-9.1,6.8-11.2,4.6c-2.4-2.6-5.5-1.9-8-3.3c-1.2-0.7-3.3-0.6-3.3,0.8c0,5.3-5.7,7.8-5.9,12.8c-2.7,0-5.3,0-8,0
		c0.9-1.7,2.6-3.2,1.7-5.8c-2.6,1.5-3.6,3.4-3.7,5.8c-1.3,0-2.7,0-4,0c-2.3-1.2-3.2-4.4-6.1-4.8c0,0-0.1-0.1-0.1-0.1
		C143.9,295.6,143.9,294.9,143.9,294.2z"/>
	<path class="st8" d="M296.1,268.1c0.9,4.7,2.5,8.6,8,9.4c2.3,0.4,3.6,2.2,4.6,4.2c3.4,6.9,6.4,14.1,12.4,19.4c-3,0-6,0-9,0
		c0.2-2,0.6-3.9,0.6-5.9c-0.1-2.8-1.6-4.7-4.7-4.7c-1.3,0-2.9-0.3-3.5,1.1c-0.5,1.2,0.5,2.2,1.4,2.9c2.1,1.8,3.6,3.8,4.2,6.5
		c-6.3,0-12.7,0-19,0c-1.1-3.7-1.9-7.5-5.2-10.6c-1.3,3.8-2.4,7-1.8,10.6c-6,0-12,0-18,0c0.2-1.3,0.1-3.1,1.4-3.5
		c6.5-1.8,3.6-5.7,2.5-9.2c-2.2-0.3-3,3.3-4.8,1.9c-2.3-1.8-3-5-2.6-7.7c0.5-3.1,0.3-5.8-1.2-8.6c-1.6-3-0.4-6.3,0.6-9.2
		c0.6-1.5,2.3-3.1,3.8-3.5c1.7-0.4,2.5,1.9,3.3,3.3c1.6,3,2.5,6,0.8,9.5c-2.5,4.9-1,11.4,3.3,14.9c1.9,1.6,2.7,0.2,3-1.5
		c0.5-2.7-1.5-6.8,4.3-6.1c1.4,0.2,1-2.6,0.3-3.3c-3.6-4,0.3-9.1-2-13.2c-0.3-0.6,0-1.6,0.8-1.4c6.5,1.7,2.3-3,1.9-3.9
		c-1.8-4.1-2.6-8.2-1.5-12.6c1.5,0.4,3.4,1.2,3.2,2.6c-0.6,4.8,2.8,8.8,2.1,13.5c-0.3,1.7,0.2,3.3,1.1,4.7c0.9,1.4,2.1,3.1,3.8,2.5
		c2.5-0.8,0.7-2.7,0.6-4.2c-0.2-1.7-2-4.7,2.1-2.3l0.1,0.1C293.4,266,294.3,267.4,296.1,268.1L296.1,268.1z"/>
	<path class="st5" d="M78.1,301.1c18.9-15.7,41.3-26,61.7-39.3c0.9,0.9,1.1,2.1,1.2,3.3l0,0c-4.9,2.1-6.8,6-6.8,11.1
		c0,0.3,0,0.6,0,0.9c-0.1,1.4,0,2.8,1,4c0.2,1.1,0.3,2.2,0.5,3.3c-0.3,1.1,0.2,1.6,1.2,1.8c0.3,0.1,0.7,0.3,1,0.4
		c0.3,0.5,0.6,1,0.8,1.5c0.1,1.2,0.1,2.4,0.2,3.6c0.7,1.2,1.6,2,2.9,2.6c0.2,0.6,0.4,1.2,0.6,1.9c-1.2,1-2.6,2.8-4.2,1.7
		c-4.5-2.9-4.3,0.9-5.2,3.3C114.8,301.1,96.4,301.1,78.1,301.1z"/>
	<path class="st1" d="M164.1,301.1c0.2-5.1,5.9-7.5,5.9-12.8c0-1.5,2.1-1.5,3.3-0.8c2.5,1.4,5.7,0.7,8,3.3c2,2.3,9.4-1.2,11.2-4.6
		c0.8-1.7,0.9-4.7,3.2-4.5c2.4,0.2,2.6,3.2,3,5.2c0.9,4.7,2.8,9.3,2.4,14.2C188.8,301.1,176.4,301.1,164.1,301.1z"/>
	<path class="st4" d="M358.1,279.1c-0.1-3-0.2-5.9-0.2-8.9c0-0.2,0.4-0.5,1.3-1.5c5.1,10.6,8.3,21.4,10.9,32.4c-4.3,0-8.7,0-13,0
		c-0.8-8.8-1.3-17.6-3-26.6C356.5,275.3,355.7,278.7,358.1,279.1l0.1,0.2C358.2,279.3,358.1,279.1,358.1,279.1z"/>
	<path class="st8" d="M323.1,301.1c-2.2-5.2-2.7-11.1-6-16l-0.1-0.1c0.9-2.1,2.3-2.7,3.5-0.6c1.3,2.3,1.3,5.9,3.1,7
		c1.9,1.2,4.5,1.5,6,4.5c1.3-3.7-1.2-6.8,0.1-9.8c3.3,2.8,4.3,7.5,3.3,14.9C329.8,301.1,326.4,301.1,323.1,301.1z"/>
	<path class="st4" d="M310.1,301.1c-0.6-2.7-2.2-4.8-4.2-6.5c-0.9-0.7-1.9-1.7-1.4-2.9c0.6-1.5,2.3-1.2,3.5-1.1c3,0,4.6,1.9,4.7,4.7
		c0.1,2-0.4,3.9-0.6,5.9C311.4,301.1,310.8,301.1,310.1,301.1z"/>
	<path class="st1" d="M284.1,301.1c-0.6-3.6,0.5-6.8,1.8-10.6c3.3,3.1,4.1,6.9,5.2,10.6C288.8,301.1,286.4,301.1,284.1,301.1z"/>
	<path class="st7" d="M133.1,301.1c0.9-2.4,0.7-6.2,5.2-3.3c1.6,1.1,3-0.7,4.2-1.7c0.5,0.1,0.9,0.1,1.4,0.2c0,0,0.1,0.1,0.1,0.1
		c0.7,1.6,2.3,2.8,2.1,4.8C141.8,301.1,137.4,301.1,133.1,301.1z"/>
	<path class="st1" d="M154.1,301.1c0.1-2.5,1.1-4.4,3.7-5.8c0.9,2.6-0.8,4.1-1.7,5.8C155.4,301.1,154.8,301.1,154.1,301.1z"/>
	<path class="st6" d="M146.1,301.1c0.2-2-1.5-3.2-2.1-4.8c3,0.4,3.8,3.5,6.1,4.8C148.8,301.1,147.4,301.1,146.1,301.1z"/>
	<path class="st4" d="M372.1,301.1c0.4-0.9,0.1-2.3,1.3-2.4c1.6-0.2,1.5,1.4,1.7,2.4C374.1,301.1,373.1,301.1,372.1,301.1z"/>
	<path class="st6" d="M132.4,105.7c0-0.7,0.1-1.3,0-2c-2.4-13.9-0.2-27.8,0.9-41.6c0.7-9.1,2.7-17.6,8.2-25c4.1,0,8.3-2.3,12.2-0.1
		c2.9,1.6,5.1,1.2,8,0.1c3.1-1.2,6.6-3.2,10-1c2.1,1.4,3.6,1.1,5.3-0.3c1.9-1.5,4.8-3.1,6.4-1.6c4.7,4.4,11.9,3.2,16.3,7.9
		c1.5,1.6,3.2,2.1,5.2,0.1c4.6-4.5,10.9-4.5,14.9,0.7c6.9,8.9,13.8,17.9,20.9,26.6c3.1,3.8,5.4,8.7,1.2,13.6
		c-5.1-2.4-10.2-4.9-13.3-9.7c-2.8-4.4-4.4-9.8-11.3-9.1c-1,0.1-2-1.1-3.1-1.5c-9.3-2.9-18-8.6-28.7-5.2c-4.1,1.3-8.8,0.3-12.8-2.4
		c-5.4-3.7-11.8-2.7-17.9-3.2c-4.1-0.4-2.4,3.5-4,5.2c-6,6.3-9.6,14.2-11.1,22.8c-0.5,2.8,0.9,3.6,3.5,3.2c1.4,1,2.9,1.9,4.3,2.9
		c-0.4,3-1,6.4-3.6,7.9c-4.8,2.8-5.6,7-5.6,11.8c0,3-1.1,3.2-3.2,1.7C134,106.8,133.2,106.2,132.4,105.7z"/>
	<path class="st7" d="M241.8,83c4.2-4.9,1.9-9.8-1.2-13.6c-7.1-8.8-14-17.7-20.9-26.6c-4-5.2-10.3-5.2-14.9-0.7
		c-1.9,1.9-3.7,1.5-5.2-0.1c-4.4-4.7-11.6-3.5-16.3-7.9c-1.6-1.5-4.5,0.1-6.4,1.6c-1.8,1.4-3.2,1.7-5.3,0.3c-3.4-2.2-6.9-0.2-10,1
		c-2.8,1.1-5.1,1.5-8-0.1c-3.9-2.1-8.1,0.1-12.2,0.1c5.2-8.9,12.7-14.9,22.5-18.1c2.1,4.8,5.9,4.6,10,3.4c2.5-0.7,5.2-2.5,7.7-1.2
		c4.1,2.1,8.3,1.9,12.6,2.1c3.7,0.2,7.5,1.4,11.1,1.8c7,0.7,13,2.6,18.8,6.2c0.8,0.5,2.3,0,3.4-0.1c1.2-0.2,2.9-0.3,3.1,0.8
		c0.8,5.7,4.1,9.3,9.2,11.6c0.2,0.1,0.5,0.5,0.5,0.8c0.4,4.9,2.1,9.2,4.4,13.5c0.6,1.1,0.4,3.1-0.1,4.4c-2.7,7.4,0.5,12.8,5.5,17.8
		c1.1,0.9,1.3,2.3,1.3,3.6c-3.2-0.8-6.4-1.3-9.1,1.3C242.2,84.4,242,83.7,241.8,83z"/>
	<path class="st5" d="M250.1,80.1c-5-4.9-8.2-10.4-5.5-17.8c0.5-1.3,0.7-3.2,0.1-4.4c-2.3-4.3-4-8.7-4.4-13.5c0-0.3-0.2-0.7-0.5-0.8
		c-5-2.3-8.3-5.9-9.2-11.6c-0.2-1.2-1.9-1-3.1-0.8c-1.1,0.2-2.6,0.6-3.4,0.1c-5.8-3.7-11.9-5.5-18.8-6.2c-3.5-0.3-7.3-1.6-11.1-1.8
		c-4.3-0.2-8.5,0-12.6-2.1c-2.5-1.3-5.1,0.5-7.7,1.2c-4.1,1.1-8,1.4-10-3.4c14.5-6.9,29.7-8.2,45.5-5.8c9.6,1.5,18.2,5.3,26.6,9.8
		c3,3.4,5.9,6.8,8.9,10.1c3.3,8.3,3.8,17.1,4.5,25.9c0,1.7,0,3.4,0.1,5.1c0,2.6,0,5.2,0.1,7.9C249.8,74.7,249.9,77.4,250.1,80.1z"/>
	<path class="st4" d="M132.4,105.7c0.8,0.6,1.7,1.1,2.5,1.7c2.2,1.5,3.3,1.3,3.2-1.7c0-4.8,0.8-9,5.6-11.8c2.6-1.5,3.2-4.9,3.6-7.9
		c0.9-0.2,1.8-0.4,2.6-0.6c2.7,0.3,5.4,0.6,8,0.9c1.4,2.8,4,4.4,6.4,6.1c1,0.8,2.6,1.2,2.3,2.9c-0.3,1.7-1.7,2.3-3.2,2.6
		c-2.1,0.5-4.1,1.2-6,2.3c-7.1,3.9-6.7,10.4-6.4,16.9c0,0,0,0,0,0c-3.4,3-6.8,4.6-10.8,0.9c-1.1-1-2.1-0.4-2.8,0.8
		c-2.1,3.6-2.9,1.5-3.4-0.9C133.3,113.9,131.5,109.9,132.4,105.7z"/>
	<path class="st4" d="M245,33.1c-3-3.4-5.9-6.8-8.9-10.1c2.7-4,5.3-0.1,6.3,1C244.4,26.3,246.3,29.5,245,33.1z"/>
	<path class="st4" d="M249.5,64.1c0-1.7,0-3.4-0.1-5.1C251.7,60.7,252.4,62.4,249.5,64.1z"/>
	<path class="st4" d="M241.8,83c0.2,0.7,0.4,1.4,0.5,2c0,4.5-2.9,4.3-5.9,3.5c-1.2-0.3-2.2-1.2-3.3-1.9c-1.2-3.3-4.9-4-7-6.5
		c-1.5-2.9-3.9-5.2-7.1-3.9c-3.3,1.3-5.8,0.3-8.4-1.1c-4.3-2.3-8.3-5.4-13.8-4.6c-1.6,0.2-3-1.3-4.4-2.2c-6.8-4.3-14-5.1-21.6-2.3
		c-2.9,0.7-3.6-5.9-6-2.7c-1.4,1.9,3.4,3.6,4.9,5.9c-4-1.2-7.7-2.7-10.4-6.1c-1.7-2.2-3.6-2-5.6-0.4c-3.3,0.9-5.6,3-6.8,6
		c-1.8,4.6-3.4,9.3-3.8,14.2c-2.6,0.5-4-0.4-3.5-3.2c1.6-8.7,5.1-16.5,11.1-22.8c1.6-1.6-0.1-5.5,4-5.2c6.1,0.5,12.5-0.5,17.9,3.2
		c4,2.8,8.7,3.7,12.8,2.4c10.7-3.4,19.4,2.3,28.7,5.2c1.1,0.3,2.1,1.6,3.1,1.5c6.9-0.7,8.4,4.7,11.3,9.1
		C231.6,78.2,236.7,80.6,241.8,83z"/>
	<path class="st8" d="M151.1,117.1c-0.3-6.6-0.7-13.1,6.4-16.9c1.9-1.1,3.9-1.8,6-2.3c1.5-0.3,3-0.9,3.2-2.6
		c0.3-1.7-1.3-2.1-2.3-2.9c-2.4-1.7-5-3.3-6.4-6.1c2.2,0.1,4.4,0.6,6.1,2c5.8,4.9,12.6,5.4,19.7,4.5c6.8-0.9,9.9,0.6,11.8,7
		c1.5,5.1,4.8,7,9.5,7.1c4.7,0.1,7.2,2.9,9.1,6.7c0.5,1,1.5,2.1,0.4,3.1c-1,1-2.5,0.3-3.1-0.6c-1.8-2.7-3.8-2.5-6.3-1.1
		c-2.4,1.3-4.5,0-6.4-1.4c-4.8-3.4-10-5.2-15.9-3.5c-2.3,0.7-4.2,1.4-5.7,3.6c-2,3.1-4.6,3.5-7.3,0.5c-2.5-2.7-5.5-3-8.6-1
		C158.1,115.1,154.6,116.1,151.1,117.1z"/>
	<path class="st8" d="M269.5,197c4.9,1.5,7.1,4.3,5.5,9.7c-1.1,3.9,1.6,6.3,4.7,7.8c4.2,2,5.1,5.4,6.7,9.4
		c2.1,5.6,0.5,10.7,1.1,15.9c0.2,1.5-0.5,3.2-1.7,3.9c-1.5,0.8-2.3-0.8-3.1-1.8c-2.5-3.1-4.2-1.5-5.6,1.1c-1.2-2.6-1.9-5.3-1-8.2
		c0.6-2.1,3.5-4.5,1-6.2c-2.2-1.5-5.5-2.1-8.5-1.1c-1.3,0.4-2.5,1-3.8,1.3c-2.5,0.7-4.6-0.8-3.8-2.9c1.8-5.2-0.8-8.5-3.8-12
		c-0.5-0.6-0.7-1.4-1.4-3c4.7,2,7.5,4.9,10.4,7.8c1.7,1.7,3.4,3.3,6.1,2.1c2.7-1.2,4.1-2.9,1.7-5.7c-3.5-4.1-6.4-8.1-12.4-10
		c-4.3-1.3-7.7-6.4-9.4-11.8c2.6,0,3.2,1.8,4.5,2.7c1.5,1,3.1,1.8,4.3,0c1.8-2.7,3.9-1.9,6.1-1c0,0,0,0,0,0
		C267.1,196.7,267.5,197.8,269.5,197z"/>
	<path class="st8" d="M170.8,66.2c7.6-2.8,14.8-2,21.6,2.3c1.4,0.9,2.8,2.4,4.4,2.2c5.4-0.8,9.4,2.3,13.8,4.6
		c2.7,1.4,5.1,2.4,8.4,1.1c3.3-1.3,5.6,1,7.1,3.9c-1.7,5.3-7.5,5.2-11.2,7.9c-1.4,1-3,1.3-3.9,3.3c-1.4,3-4.7,2.6-5.4,0.4
		c-1.7-5-5.6-7.1-9.4-9.7c-1.7-1.2-3.5-2.8-4.5-4.6c-3.4-6-8.8-6.5-14.7-6.1c-1.7-1-3.4-2.1-5.1-3.1
		C171.6,67.5,171.2,66.8,170.8,66.2z"/>
	<path class="st8" d="M257.9,141.2c-2.8-0.4-4.6-2.4-6.8-4c-1.5-1.1-3.3-1.9-5.1-1.1c-2.1,0.9-1.8,3-1.9,4.8c0,1.8,0,3.6,0.2,5.5
		c0.6,6.1,3.6,10,9.9,11c3.8,0.6,7.7,1.3,7.1,6.8c-0.1,0.9,1.1,2,1.7,3c-0.4,0.7-0.7,1.4-1.1,2.1c-0.6,0.3-1.3,0.6-1.9,0.9
		c-1.1-0.6-1.4-2.2-3.3-2.2c0.3,2.8,2,4.2,4.3,5.2l0,0c-4.6,2.9-8.2,1.5-10.7-4.1c-0.9-2-1.5-4-2.5-6c-0.8-1.8-2-3-4.3-2.1
		c-3.2,1.3-4.8-1.1-5.5-3.5c-2-6.6-3.5-13.4-4.1-20.4c-0.3-3.1,0.9-4.6,4.2-4.5c4.2,0.1,2.8-1.6,0.8-3.3c0-0.4,0-0.8,0-1.3
		C246.1,131.5,253.8,133.7,257.9,141.2z"/>
	<path class="st8" d="M172.1,252.1c-1.3,0.3-2.6,0.5-3.9,0.8c-2.2,0.5-3.4-0.1-3.7-2.6c-0.3-3.3-0.3-6.8-4.5-8.3
		c-1.5-0.5,0.4-2.8-0.5-4.2c-1.2-0.4-1,1.7-2,1.5c-1.5-0.2-1-1.5-1-2.4c0.2-4.3,0.6-8.6,0.8-12.9c1.7,0.9,2.1,2.4,2.3,4.1
		c0.3,2.6,1.7,4.9,3.9,6c3.5,1.7,4.7,4.3,4.5,8c-0.1,3.2-0.8,6.8,3.9,7.8C172.7,249.9,172.3,251.3,172.1,252.1z"/>
	<path class="st8" d="M143,83.1c0.4-5,2.1-9.7,3.8-14.2c1.2-3,3.5-5.1,6.8-6c-0.5,4.5-1.6,9-0.2,13.6c0.5,1.7-0.2,3.4-2.2,3.7
		c-4.9,0.7-3.1,2.9-1.2,5.2c-0.9,0.2-1.8,0.4-2.6,0.6C145.9,85,144.5,84.1,143,83.1z"/>
	<path class="st8" d="M259.6,131.1c0.3,1.5,1,3.3-0.4,4.2c-1.8,1.1-2.5-1.1-3.5-2c-4.4-4.1-8.3-8.9-14.5-12.6
		c4.1-1.2,7.5-0.1,9.4-3.1c0.8,0.7,1.7,1.3,2.5,2c1.2,1.7,1.6,3.5,1.5,5.5C254.6,128.4,256,130.7,259.6,131.1z"/>
	<path class="st6" d="M253.1,119.5c-0.8-0.7-1.7-1.3-2.5-2c-0.8-1.2-1.6-2.4-2.4-3.7c-1.4-2.2-2.7-4.5-2.8-7.2
		c1.5,0.6,3,1.2,4.5,1.8c0.4,2.1,1.4,3.6,3.5,4.4c2.6,0.9,4.1,2.6,4.6,5.3C256.2,117.9,254.6,118.6,253.1,119.5z"/>
	<path class="st4" d="M253.1,119.5c1.5-0.9,3.1-1.7,4.9-1.3c0.3,0,0.7,0,1,0c1.3,2.3,3.8,3.9,4.2,6.9c-1.7-0.4-3-3.2-5-1.1
		c-1.5,1.7-0.6,3.6,0.4,5.3c0.2,0.3,0.4,0.5,0.6,0.8c0.1,0.3,0.3,0.7,0.4,1c-3.6-0.4-5-2.6-4.9-6C254.7,123,254.3,121.2,253.1,119.5
		z"/>
	<path class="st7" d="M218.1,106.7c4.3-2.4,8.1-1.9,11.4,1.8c0,0.3-0.1,0.6-0.3,0.9c-1.1-0.1-2,0.2-2.5,1.4c-2.6,0.7-4.8-0.3-7-1.5
		C219.1,108.4,218.6,107.5,218.1,106.7z"/>
	<path class="st8" d="M214.3,278.7c-1.8,0.5-2.7-0.1-2.6-1.6c0.1-2.2,1.9-2.9,3.7-3.1c1.9-0.2,3.3,0.5,3.4,2.5
		C218.8,280.6,214.8,276.5,214.3,278.7z"/>
	<path class="st8" d="M245.5,204.4c1.9,0.1,3.4,0.7,3.7,2.7c0.2,1.5-0.5,2.8-2,2.9c-2.3,0.2-3.1-1.7-3.6-3.4
		C243.2,205,244.3,204.6,245.5,204.4z"/>
	<path class="st4" d="M245.4,106.7c0.2,2.7,1.4,5,2.8,7.2c-3.6,1.3-7,2.5-5.6-3.8c0.2-0.9-1.1-2.2-1.7-3.4
		C242.4,105.8,243.9,106,245.4,106.7z"/>
	<path class="st6" d="M266.2,149c-1,2.6-2.6,2.3-4.1,0.7c-1.7-1.7-6.2-2.1-3.1-6.2C261,145.8,264.5,146.3,266.2,149z"/>
	<path class="st8" d="M259.2,130.1c-0.2-0.3-0.4-0.5-0.6-0.8c-1-1.7-1.9-3.7-0.4-5.3c2-2.1,3.3,0.7,5,1.1c0.3,0.4,0.6,0.8,0.8,1.2
		c0,1,0,1.9-0.1,2.9C262.2,128.8,260.2,126.9,259.2,130.1z"/>
	<path class="st8" d="M231.2,127c-2-2.7-4-5.4-6-8.2c0.3-0.3,0.6-0.7,0.9-1c2.9,1.2,5.1,3.6,7.1,6.1
		C232.5,124.9,231.9,125.9,231.2,127z"/>
	<path class="st8" d="M255.9,179.4c5,3.5,5.1,7.1,4,12.4C258.4,187.2,257.4,183.9,255.9,179.4z"/>
	<path class="st7" d="M170.8,66.2c0.4,0.7,0.8,1.3,1.2,2c0,1.1,0,2.1,0,3.2c-0.8-0.7-1.6-1.3-2.4-2c-1.5-2.2-6.3-4-4.9-5.9
		C167.3,60.3,168,66.9,170.8,66.2z"/>
	<path class="st6" d="M172,71.3c0-1.1,0-2.1,0-3.2c1.7,1,3.4,2.1,5.1,3.1c-0.1,3.2-0.1,3.2-4.7,1.1c-0.1-0.2-0.2-0.3-0.4-0.3
		C172,71.8,172,71.6,172,71.3z"/>
	<path class="st4" d="M231.2,127c0.7-1,1.3-2.1,2-3.1c2,1.3,4.4,2.2,5.9,4.2c0,0.4,0,0.8,0,1.3C236.4,128.6,233.8,127.8,231.2,127z"
		/>
	<path class="st4" d="M264,129.2c0-1,0-1.9,0.1-2.9c4.3,2.8,5,7.4,5.8,11.9C266.7,135.9,266.7,131.7,264,129.2z"/>
	<path class="st8" d="M236.1,190.5c3.1,1.7,4,3.4,4.4,6.2C237.4,195.8,236.8,193.7,236.1,190.5z"/>
	<path class="st4" d="M218.1,106.7c0.5,0.9,1,1.7,1.6,2.6c-0.9,0.5-1.9,1.9-3,0.9c-1.1-1-0.2-2.5-0.1-3.7
		C217.1,106.5,217.6,106.6,218.1,106.7z"/>
	<path class="st8" d="M245.9,165.7c-0.1,0.1-0.2,0.3-0.2,0.3c-0.2-0.1-0.4-0.2-0.6-0.4c0.1-0.1,0.2-0.3,0.2-0.3
		C245.5,165.5,245.7,165.6,245.9,165.7z"/>
	<path class="st7" d="M233,107.9c0.6-1.2,1.6-1.8,2.9-1.2C235.2,107.8,234.3,108.2,233,107.9z"/>
	<path class="st4" d="M260.1,170.1c0.6-0.3,1.3-0.6,1.9-0.9c0.3,0.6,0.7,1.3,1,1.9c-0.7,0.1-1.3,0.1-2,0.2
		C260.7,170.8,260.4,170.4,260.1,170.1z"/>
	<path class="st4" d="M226.7,110.8c0.5-1.1,1.4-1.5,2.5-1.4C228.4,109.9,227.5,110.3,226.7,110.8z"/>
	<path class="st8" d="M261,171.2c0.7-0.1,1.3-0.1,2-0.2c-0.6,0.7-1.3,1.4-1.9,2.1c0,0,0,0,0,0C261.1,172.4,261,171.8,261,171.2z"/>
	<path class="st4" d="M264.8,180.3c-0.2-0.4-0.3-0.7-0.5-1.1c0.4,0.2,0.7,0.3,1.1,0.5C265.2,179.9,265,180.1,264.8,180.3z"/>
	<path class="st4" d="M172.1,72c0.2,0,0.3,0.1,0.4,0.3C172.3,72.3,172.2,72.2,172.1,72z"/>
	<path class="st6" d="M135.7,284.3c-0.2-1.1-0.3-2.2-0.5-3.3c0.9-1.6,0.3-2.9-1-4c0-0.3,0-0.6,0-0.9c4.5-2.4,5.7-6.7,6.8-11.1
		c0,0,0,0,0,0c1.6-0.2,3.1-0.4,5.1-0.6c-1.2-2-2.1-3.7-3.1-5.4c3.5-3.7,4.9-8.6,7.6-12.8c1.4-2.1,2.3-2.7,3.9-0.2
		c0.7,1.1,2.1,1.7,2.8,2.8c1.6,2.6,2.2,5.8-1.1,7.1c-4.4,1.8-4.8,5.2-5.9,9.4c3.9-0.7,6.9-1.7,9.1-4.5c0.6-0.8,1.4-1.7,2.5-1.1
		c1,0.5,0.9,1.6,0.9,2.6c0,7.1-7.1,12.9-13.8,10.9c-3.6-1.1-5,0.7-5.9,3.5c-1.1,3.1-2.7,5.7-5.6,7.3
		C136.9,284.2,136.3,284.3,135.7,284.3z M154.2,269.3c-0.4-0.5-0.8-1.1-1-1.1c-0.6,0.2-1.2,0.4-1.6,0.9c-0.5,0.7,0,1.3,0.8,1.2
		C152.9,270.2,153.4,269.7,154.2,269.3z"/>
	<path class="st7" d="M143.1,259c1,1.7,1.9,3.4,3.1,5.4c-2,0.2-3.6,0.4-5.1,0.6c-0.1-1.2-0.4-2.3-1.2-3.3
		C140.9,260.8,142,259.9,143.1,259z"/>
	<path class="st8" d="M61,208.9c-1-0.1-1.4-0.9-1.2-1.7c0.1-1.2,0.4-2.4,1.9-2.3c1,0.1,1.1,1.1,1,1.9
		C62.6,207.7,62.2,208.6,61,208.9z"/>
	<path class="st8" d="M56.8,214.3c-0.3,0.5-0.5,0.8-0.8,1.2c-0.3-0.2-0.9-0.4-0.9-0.7c-0.1-0.3,0.3-0.7,0.5-1.1
		C55.9,213.8,56.3,214,56.8,214.3z"/>
	<path class="st7" d="M141.9,294.2c-1.2-0.6-2.2-1.4-2.9-2.6c0.7-0.2,1.5-0.4,2.2-0.6c0.4,0.3,0.8,0.7,1.1,1
		C142.2,292.7,142,293.5,141.9,294.2z"/>
	<path class="st6" d="M141.9,294.2c0.2-0.7,0.3-1.5,0.5-2.2c0.5,0.7,1,1.5,1.6,2.2c0,0.7,0,1.4-0.1,2c-0.5-0.1-0.9-0.1-1.4-0.2
		C142.3,295.4,142.1,294.8,141.9,294.2z"/>
	<polygon class="st8" points="30.1,237.4 30.2,237.8 29.9,237.6 	"/>
	<path class="st6" d="M141.2,291c-0.7,0.2-1.5,0.4-2.2,0.6c-0.1-1.2-0.1-2.4-0.2-3.6c0.4,0,0.7-0.1,1.1-0.1
		C140.3,288.9,140.8,290,141.2,291z"/>
	<path class="st7" d="M135.7,284.3c0.6-0.1,1.2-0.1,1.8-0.2c-0.2,0.7-0.4,1.3-0.6,2C136,285.9,135.4,285.4,135.7,284.3z"/>
	<path class="st7" d="M139.9,287.9c-0.4,0-0.7,0.1-1.1,0.1c-0.3-0.5-0.6-1-0.8-1.5C139.1,286.3,139.6,286.9,139.9,287.9z"/>
	<path class="st8" d="M16.5,87.4c-0.5-0.4-1.1-0.9-1-1c0.3-0.5,0.6-1.1,1.1-1.3c0.6-0.3,1.3,0,1.1,0.8C17.6,86.5,17,86.9,16.5,87.4z
		"/>
	<path class="st7" d="M324.3,169.9c-6.2,0.4-8.7-4.5-11.5-8.4c-1.4-1.9-2.6-4.1-3.7-6.3c3.1,1.2,5.2,3.3,6.7,6.2
		C317.7,165.1,322.5,166,324.3,169.9z"/>
	<path class="st6" d="M317.1,235c3.2,3.9,5.8,8,6.1,13.2c0.1,1.5,0.3,3.2-1.5,3.8c-1.8,0.6-2.5-0.9-3.3-2.2c-2.8-4.6-4.5-9.5-3.6-15
		C315.5,234.9,316.3,235,317.1,235z"/>
	<path class="st8" d="M293,264.1c-0.5-5.4-2.7-10.5-2.8-17c2.6,2.8,7.7,2.7,5.2,8.5c-1,2.2,1.9,4,3,5.9c2.1,4,1.6,5.7-2.3,6.6
		c0,0,0,0,0,0C295.6,266.4,294.7,265,293,264.1L293,264.1z"/>
	<path class="st6" d="M304.8,220.4c0,2.2-0.3,4-3,4.3c-1.6,0.2-3.4,0.6-4.4-1.3c-1.5-2.8,0.5-4.7,1.7-6.8
		C301.1,217.9,302.9,219.1,304.8,220.4z"/>
	<path class="st8" d="M298,242.7c-2.8-4.4-1.2-8.8-1.3-12.9c-0.1-1.6,1.7-1.9,2.4-0.7c1.3,2.1,6,4.1,0.6,7.1
		C297.8,237.3,299.2,240.3,298,242.7z"/>
	<path class="st8" d="M304.8,220.4c-1.9-1.3-3.8-2.5-5.6-3.8c-1.1-2.2-1.9-4.3-0.1-6.5c0.9,2,2,3.8,4.5,4.1
		C308.3,216.5,308.5,217.3,304.8,220.4z"/>
	<path class="st8" d="M317.1,235c-0.8-0.1-1.6-0.1-2.4-0.2c-2-0.8-4-1.5-5.6-3c-1-1-1.8-2.3-0.7-3.4c1.5-1.6,2.1,0.4,3,1.2
		c0.4,0.4,0.9,0.7,1.4,1.1c1.5-1.4,0.7-3,1.1-4.3c1.2,2.3,3.7,4,3.9,6.9C317.6,233.8,317.4,234.4,317.1,235z"/>
	<path class="st6" d="M312.3,253.9c-0.4-3.3-3-5.4-4.1-8.3c-0.5-1.3-1.3-3.2,0.4-3.9c1.9-0.7,2.5,1.4,2.7,2.7
		c0.7,4.4,2.7,8.4,3.8,12.7C314.1,256,313.2,254.9,312.3,253.9z"/>
	<path class="st8" d="M312.3,253.9c0.9,1.1,1.9,2.1,2.8,3.2c0.4,1.3,0.7,2.7,1.1,4l0,0c-0.8-0.1-1.6-0.3-2.4-0.4
		c-2.1-0.3-4.5-0.4-5-2.9C308.1,255.3,310.9,255,312.3,253.9z"/>
	<path class="st6" d="M285.1,190.1c-2.7-1.1-5-3-7.2-4.8c-0.9-0.7-1.8-2-1.1-2.9c1.2-1.5,2.1,0.5,3.2,0.8
		C282.2,185.1,285.5,186.3,285.1,190.1z"/>
	<path class="st8" d="M285.1,190.1c0.4-3.9-2.9-5-5.1-6.9c4.7-1.6,8.2,1.6,7.5,6.9C286.7,190.1,285.9,190.1,285.1,190.1L285.1,190.1
		z"/>
	<path class="st6" d="M327.3,265.4c1.6,0.8,2.9,1.9,3.3,3.9c0.2,0.9-0.4,1.8-1.4,1.5c-2.1-0.6-3-2.4-3.3-4.4
		C325.8,265.7,326.4,265.3,327.3,265.4z"/>
	<path class="st6" d="M272.5,169c-2.5-2.5-4.8-3.5-4.2-6.3c0.1-0.3,0.9-0.7,1.2-0.6C272,163,272.1,165.2,272.5,169z"/>
	<path class="st8" d="M279.2,168.9c1,0.8,1.9,1.5,2.9,2.3c0.1,1.3,1.3,3.3-0.8,3.7c-1.8,0.3-2-1.7-2.2-3.1
		C278.9,170.8,279.1,169.9,279.2,168.9z"/>
	<path class="st6" d="M303.6,214.2c-2.5-0.2-3.6-2.1-4.5-4.1c0.3-1,0.6-1.9,0.9-2.9c0,0,0.3-0.3,0.3-0.3
		C302.8,208.7,303.1,211.5,303.6,214.2z"/>
	<path class="st6" d="M343.7,286.2c2,1.8,2.5,3.2,1.5,5.4C343.4,290.3,343.1,288.8,343.7,286.2z"/>
	<path class="st8" d="M292.9,199.1c-2.8-0.4-3.6-1.5-3.7-3.7C291.4,195.6,292,196.9,292.9,199.1z"/>
	<path class="st8" d="M338,286.3c1.2,0.8,1.2,1.9,0.7,3.1C337.5,288.6,338.1,287.3,338,286.3z"/>
	<path class="st1" d="M269.5,197c-2,0.8-2.4-0.3-2.4-2C267.9,195.7,268.7,196.4,269.5,197z"/>
	<path class="st8" d="M339.8,295.9c-0.1,0-0.3,0.1-0.3,0.1c-0.1-0.1-0.1-0.2-0.2-0.4c0.2,0,0.4-0.1,0.5-0.1
		C339.8,295.6,339.8,295.7,339.8,295.9z"/>
	<path class="st6" d="M285.1,190.1c0.8,0,1.6,0,2.4,0C286.7,190.1,285.9,190.1,285.1,190.1z"/>
	<path class="st8" d="M317.1,285.1C317.1,285.1,317,285.1,317.1,285.1C317,285.1,317.1,285.1,317.1,285.1z"/>
	<path class="st8" d="M316.1,261.1C316.1,261.1,316.1,261.1,316.1,261.1C316.1,261.1,316.1,261.1,316.1,261.1z"/>
	<path class="st6" d="M326,241.2c0,0,0.2-0.2,0.2-0.2C326.2,241,326,241.2,326,241.2z"/>
	<path class="st7" d="M328.1,216.1c-0.4-1-0.8-1.9-1.2-2.9l0.3-0.3c1-0.7,1-1.3-0.1-1.9l0,0c-4.4-4.5-8.8-8.9-13.2-13.4
		c-0.6-0.6-1.5-1.2-1.6-1.9c-0.2-5.6-5.1-9.1-6.4-14.2c-0.4-1.7-1.2-3.1-2.5-4.2c-3.1-2.6-5.3-4.9-4.7-9.9c0.5-4-4.4-6.8-7.1-9.7
		c-2.6-2.7-5.6-5.1-7.8-8.3c-0.9-1.4-2.3-2.5-4-2.9c-2.8-0.6-3.7-2.5-3.8-5.1c3.9-1.9,5.5,1.8,7.8,3.5c6.6,4.6,11.4,11.1,17.1,16.5
		c2.7,2.5,5.3,4.5,6.8,8.8c1.9,5.6,5.7,11.5,11.9,14.4c1.2,0.6,1.6,1.5,2,2.6c0.7,2.4,2,4.1,4.8,4.4c1.8,0.2,3.2,1.3,3.2,3.2
		c0,1.7-0.4,3.4-2.8,3.2c-1.7-0.1-1.4,1.1-1,2c1.5,3.3,2.1,7.1,4.8,9.8C330.9,212.6,329.6,214.4,328.1,216.1L328.1,216.1z"/>
	<path class="st7" d="M329.6,188.4c-4.9-1.1-6.5-5.9-9.5-9c-1.4-1.4-2.2-3.2-4-4.4c-0.9-0.6-2.4-1.4-1.3-2.6c0.9-1,2.3-0.2,3.1,0.5
		c1.3,1,2.3,2.3,3.5,3.5c3.6,3.6,5.2,9.2,11.4,10.1c1.9,0.3,3.4,2.6,3.6,5c-2.1-0.8-4.2-1.6-6.3-2.5c0,0,0.1,0,0.1,0
		C329.8,189,329.7,188.7,329.6,188.4z"/>
	<path class="st7" d="M259.1,118.2c-0.3,0-0.7,0-1,0c-0.4-2.7-2-4.5-4.6-5.3c-2.1-0.7-3.2-2.2-3.5-4.4c0.6-1.2,1.3-2.3,1.8-3.5
		c0.6-1.5,0.8-3.5,3.1-3c1.8,0.4,2.1,2.1,2,3.6C256.6,109.9,259.3,113.8,259.1,118.2z"/>
	<path class="st7" d="M340,194.2c2.5,1.1,4.2,3.1,5.6,5.4c0.9,1.4,1.6,2.9,3.7,2.6c1.2-0.2,2.6,0.1,2.2,1.7
		c-0.3,1.1-1.8,1.6-2.9,1.2c-3.8-1.3-7.1-3.5-9.5-6.7C339.3,197,339.7,195.6,340,194.2z"/>
	<path class="st6" d="M328.1,216.1c1.5-1.7,2.9-3.5,2.5-6c1.5,0.1,2.3,1.4,3.4,2.1c0,0,0-0.1,0-0.1c0.3,0.7,0.7,1.4,1,2.1
		c0,0,0-0.1,0-0.1c-0.1,0.3,0,0.6,0,0.9c0.5,1.3,2.8,2.2,1.6,3.6c-1.3,1.4-3.5,0.7-4.9-0.3C330.6,217.4,329.6,216.3,328.1,216.1z"/>
	<path class="st6" d="M340,194.2c-0.3,1.4-0.7,2.8-1,4.2c-2.7-3.4-6.8-5.4-9-9.3c2.1,0.8,4.2,1.6,6.3,2.5
		C337.1,193.1,338.9,193.2,340,194.2z"/>
	<path class="st7" d="M368.7,226.9c5,0.6,6.8,3.3,9,7.3C373.7,232.4,371.6,230,368.7,226.9z"/>
	<path class="st7" d="M378.3,241.8c2.1,0.8,4.2,1.6,6.3,2.4c-0.2,0.5-0.4,1-0.6,1.4c-2.5,0-4.8-0.5-6.2-3.4
		C378,242.1,378.2,242,378.3,241.8z"/>
	<path class="st7" d="M356.1,208.1c1,0.9,2.1,1.9,3.1,2.8c-0.3,0.3-0.6,0.6-0.9,0.9C357.1,211,356.3,209.8,356.1,208.1L356.1,208.1z
		"/>
	<path class="st6" d="M329.6,188.4c0.1,0.3,0.3,0.5,0.5,0.7C329.9,188.9,329.7,188.7,329.6,188.4z"/>
	<path class="st7" d="M377.9,242.3l0-0.4c0,0,0.4,0,0.4,0C378.2,242,378,242.1,377.9,242.3z"/>
	<path class="st7" d="M356.1,208.1C356.1,208.1,356.1,208.1,356.1,208.1C356.1,208.1,356.1,208.1,356.1,208.1z"/>
	<path class="st7" d="M339,246c0-2.3,0-4.6,0-6.8l0.1-0.1c5.9,5.2,6.5,7.5,3,12C341.6,249,340.9,247.1,339,246z"/>
	<path class="st4" d="M339,246c1.9,1.1,2.6,3,3.1,5c-3-1-6-1.9-9-2.9c0,0,0,0,0,0C333.8,243.7,337,246.7,339,246z"/>
	<path class="st7" d="M339,239.1c-2.7-0.5-4-2.7-5.4-4.7c-0.5-0.7-0.7-1.7,0.1-2.2c0.9-0.6,1.6,0.1,2.1,0.8c1.2,2,2.2,4,3.3,6
		C339.2,239,339,239.1,339,239.1z"/>
	<path class="st7" d="M320.8,213.1c-1.9-2.1-3.2-4-3.3-6.6C319.2,208.2,321.8,209.3,320.8,213.1z"/>
	<path class="st7" d="M321.6,218.2c2.4,0.2,4.4-0.7,5.1,1.9c0.2,0.7,0,1.5-0.8,1.6C323.8,222,322.8,220.6,321.6,218.2z"/>
	<path class="st4" d="M375.4,292.9c-2.7-0.3-4-1.7-4.3-4.6C374.1,288.6,374.5,291.1,375.4,292.9z"/>
	<path class="st4" d="M351.6,270.4c-1.2-2.7-0.6-4.6-0.7-7.3C352.7,265.7,353.3,267.4,351.6,270.4z"/>
	<path class="st4" d="M340.2,272.3c-1.3-2.2-0.6-3.7,0.8-4.9c0.5-0.5,1.4-0.1,1.5,0.6C343,270,341.6,271,340.2,272.3z"/>
	<path class="st4" d="M362.1,263.6c2.9,2.5,4,6,4.9,9.6C363.7,270.8,363,267.1,362.1,263.6z"/>
	<path class="st7" d="M355.1,256.9c0,0.8-0.4,1.2-1.2,1.2c-0.9-0.1-1.4-0.7-1.5-1.6c-0.1-0.7,0.1-1.4,0.8-1.5
		C354.5,255,354.8,255.9,355.1,256.9z"/>
	<path class="st7" d="M280.1,155.1c1.4,0.5,2.8,1,4,3C281.3,158.2,280.6,156.8,280.1,155.1L280.1,155.1z"/>
	<path class="st4" d="M352.7,278.8c0.2,0.5,0.6,1.2,0.6,1.9c0,0.5-0.6,0.8-1,0.4c-0.4-0.4-0.7-1-0.8-1.6
		C351.4,279.1,351.8,278.6,352.7,278.8z"/>
	<path class="st7" d="M382.1,283c-0.2,0.1-0.5,0.2-0.7,0.2c-0.1,0-0.3-0.3-0.2-0.4c0.1-0.2,0.3-0.4,0.5-0.6
		C381.8,282.5,382,282.7,382.1,283z"/>
	<polygon class="st4" points="346.1,255.4 346.4,255.4 346.3,255.7 	"/>
	<path class="st7" d="M326.9,213.2c-0.4-0.8-0.3-1.5,0.2-2.1c0,0,0,0,0,0c0,0.6,0.1,1.3,0.1,1.9C327.2,213,326.9,213.2,326.9,213.2z
		"/>
	<path class="st7" d="M377.1,275c0.4,0.7,0.8,1.3,1.1,2l-0.3,0.3c-0.3-0.7-0.7-1.4-1-2.1L377.1,275z"/>
	<polygon class="st7" points="376.9,275.2 376.9,275 377.1,275 	"/>
	<polygon class="st7" points="378.3,277 378.3,277.3 378,277.3 	"/>
	<path class="st7" d="M280.1,155.1C280.1,155.1,280.1,155.1,280.1,155.1C280.1,155.1,280.1,155.1,280.1,155.1z"/>
	<path class="st4" d="M300,203.1C300,203.1,300.1,203.1,300,203.1C300.1,203.1,300,203.1,300,203.1z"/>
	<path class="st5" d="M352.2,225.3c-0.6,1.3,0.2,4.2-2,3.7c-2.9-0.7-5.3-3.2-5.7-6.3c-0.3-2.6,2.4-1.6,3.8-1.8
		C351.4,220.5,352.2,222.7,352.2,225.3z M351,224.3c-0.9-0.6-1.1-0.8-1.3-1c-0.2,0.3-0.5,0.6-0.7,1c0,0.1,0.4,0.5,0.6,0.5
		C350,224.8,350.4,224.5,351,224.3z"/>
	<path class="st6" d="M392.7,281.2c-2.8-2.7-5.5-5.3-7.4-9.8C389.7,274.1,391.7,277.4,392.7,281.2z"/>
	<path class="st5" d="M359.4,230.8c2,1.3,3.9,2.7,4.3,6c-3.1-1.2-3.8-3.5-4.8-5.5C359.1,231.1,359.2,231,359.4,230.8z"/>
	<path class="st6" d="M355.7,249.5c-0.4-0.2-0.9-0.4-1.3-0.7c-0.8-0.6-2.7-1.1-1.5-2.4c1.1-1.2,2,0.4,2.7,1.2
		c0.3,0.4,0.5,0.9,0.7,1.3C356.1,249.1,355.9,249.3,355.7,249.5z"/>
	<path class="st6" d="M368.1,245c0.9,1.1,1.9,2.1,3.6,4.1c-2.8-0.9-3.4-2.3-4-3.7C367.9,245.3,368,245.2,368.1,245z"/>
	<path class="st6" d="M367.8,245.5c-0.7-0.4-1.5-0.7-1.6-1.7c0-0.1,0.2-0.3,0.3-0.3c1,0.1,1.3,0.9,1.7,1.6
		C368,245.2,367.9,245.3,367.8,245.5z"/>
	<path class="st6" d="M388,288.3c-1.6-0.5-2.4-1.6-2.9-3.1c0,0,0.1-0.1,0.1-0.1c1.5,0.5,2.6,1.5,3,3L388,288.3z"/>
	<path class="st5" d="M358.9,231.3c-0.2-0.2-0.6-0.7-0.6-0.7c0.5-0.6,0.7,0,1,0.3C359.2,231,359.1,231.1,358.9,231.3z"/>
	<path class="st6" d="M367.4,266.8c0.6,0.7,1.2,1.4,1.8,2.2c-0.1,0.1-0.3,0.3-0.4,0.5c-0.6-0.7-1.2-1.5-1.8-2.2
		C367.1,267,367.3,266.9,367.4,266.8z"/>
	<path class="st5" d="M335.1,214.1c-0.3-0.7-0.7-1.4-1-2.1C334.4,212.8,334.7,213.5,335.1,214.1z"/>
	<path class="st6" d="M367,267.2c-0.3-0.7-0.1-0.8,0.5-0.4C367.3,266.9,367.1,267,367,267.2z"/>
	<path class="st5" d="M335.1,215c-0.1-0.3-0.1-0.6,0-0.9C335,214.4,335.1,214.7,335.1,215z"/>
	<polygon class="st6" points="388.2,288.1 388.2,288.3 388,288.3 	"/>
	<path class="st4" d="M293.1,264.2c1.6,0.9,2.5,2.2,2.9,3.9C294.3,267.4,293.4,266,293.1,264.2z"/>
	<path class="st7" d="M141,265c-1.1,4.4-2.3,8.8-6.8,11.1C134.2,271.1,136.1,267.1,141,265z"/>
	<path class="st7" d="M134.2,277c1.3,1.1,1.8,2.4,1,4C134.2,279.9,134.1,278.5,134.2,277z"/>
	<polygon class="st6" points="358.1,279.1 358.2,279.3 358.1,279.1 	"/>
	<path class="st1" d="M261,171.2c0,0.6,0,1.2,0,1.9c-2.3-0.9-4-2.4-4.3-5.2c1.9,0,2.2,1.6,3.3,2.2
		C260.4,170.4,260.7,170.8,261,171.2z"/>
	<path class="st4" d="M154.2,269.3c-0.7,0.4-1.2,0.9-1.7,1c-0.8,0.1-1.2-0.5-0.8-1.2c0.3-0.5,1-0.7,1.6-0.9
		C153.4,268.1,153.7,268.8,154.2,269.3z"/>
	<path class="st6" d="M327.2,213c0-0.6-0.1-1.3-0.1-1.9C328.1,211.7,328.2,212.3,327.2,213z"/>
	<path class="st7" d="M351,224.3c-0.5,0.2-1,0.5-1.4,0.5c-0.2,0-0.7-0.4-0.6-0.5c0.2-0.4,0.5-0.7,0.7-1
		C349.9,223.5,350.1,223.7,351,224.3z"/>
</g>
<path class="st8" d="M171.3,252.2l1.7-1.3c0,0-0.6,14.6,0.4,14.9s1.4-0.8,1.4-0.8s3.2,1.7,2.1,4.2c-1.1,2.5-6.2,14.3-8.2,15.1
	s-3.2,0.3-4.3-0.2s-13.8,0.4-14.6,2s-5.6,11.2-6,10.2s-2.7-3-3.2-5.3c-0.5-2.3-2.4-4.7-4.6-5.2s0.3-2.9,1.9-3.7s3.9-5.9,4.5-6.7
	s3.5-4.4,6-3.8c2.6,0.6,10.2-1.8,10.3-2.3c0.1-0.5,3.6-5.6,3-6.2c-0.6-0.7-0.1-2.7-0.8-2.3c-0.8,0.3-3.8,4.7-5.4,4.8
	c-1.6,0.2-8,1.3-7.1,0.2c0.9-1.2,1.6-7.7,2.6-7.8c1-0.1,6.9-3.8,6.4-4.9c-0.5-1.1,0.1-3.9-1.1-4.4s-2.9-1.8-2.9-2.3
	s-1.4-1.9-1.4-1.9s3.8-6.5,4.3-6c0.5,0.6,1.3,1,1.6,0.6c0.3-0.4,0.2-2.2,0.9-1.8s1.6-0.3,0.9,3.5c0,0,3.5,1.8,3.9,3.2s0.9,6.8,1.3,8
	c0,0-3,1.2,6.5-0.4"/>
</svg>
